<?xml version="1.0"?>
<svg width="85" height="120" xmlns="http://www.w3.org/2000/svg" xmlns:svg="http://www.w3.org/2000/svg">
 <!-- Created with SVG-edit - http://svg-edit.googlecode.com/ -->
 <g>
  <title>Layer 1</title>
  <g id="svg_11">
   <g id="svg_5">
    <path id="svg_8" fill="#cc181e" fill-rule="evenodd" clip-rule="evenodd" d="m84.150024,86.824997l0,6.350006c0,2.832993 -0.150024,5.966995 -0.450012,9.399994c-0.132996,1.700012 -0.267029,3.117004 -0.400024,4.25l-0.149963,0.949997c-0.166992,0.767014 -0.367004,1.517014 -0.600037,2.250015c-0.666992,2.366989 -1.532959,4.082993 -2.599976,5.149994c-1.367004,1.399994 -2.967041,2.382996 -4.799988,2.949997c-0.632996,0.200012 -1.31604,0.333008 -2.050049,0.399994c-0.766968,0.100006 -1.299988,0.167007 -1.599976,0.200012c-4.900024,0.366989 -11.28302,0.617004 -19.150024,0.75c-2.43396,0.033997 -4.882996,0.067001 -7.349976,0.099991l-2.950012,0c-3.632996,-0.03299 -7.549988,-0.082993 -11.75,-0.149994c-8.432987,-0.167007 -14.049995,-0.382996 -16.849978,-0.650009c-0.067019,-0.03299 -0.667027,-0.116989 -1.800018,-0.25c-0.899994,-0.132996 -1.682982,-0.28299 -2.349976,-0.449982c-2.06601,-0.533005 -3.78302,-1.500015 -5.150024,-2.900009c-1.03299,-1.067001 -1.899994,-2.783005 -2.599976,-5.149994c-0.233002,-0.733002 -0.417023,-1.483002 -0.550018,-2.250015l-0.199982,-0.949997c-0.132995,-1.132996 -0.266998,-2.549988 -0.400025,-4.25c-0.266998,-3.432999 -0.399994,-6.567001 -0.399994,-9.399994l0,-6.350006c0,-2.832993 0.132996,-5.949997 0.399994,-9.350006l0.400025,-4.25c0.166992,-0.966003 0.416992,-2.050003 0.75,-3.25c0.699982,-2.333008 1.566986,-4.033005 2.599976,-5.100006c1.367004,-1.434006 2.96701,-2.434006 4.800018,-3c0.632996,-0.166992 1.333008,-0.300003 2.100006,-0.399994c0.399994,-0.06601 0.916988,-0.133011 1.549988,-0.200012c4.899993,-0.332993 11.28299,-0.567001 19.149993,-0.699997c3.899998,-0.099991 7.333012,-0.149994 10.300022,-0.149994l2.949982,0.050003c2.46698,0 4.932983,0.033997 7.400024,0.099991c7.833008,0.133011 14.199951,0.367004 19.099976,0.699997c0.299988,0.033005 0.833008,0.100006 1.599976,0.200012c0.733032,0.099991 1.417053,0.233002 2.050049,0.399994c1.832947,0.565994 3.43396,1.565994 4.799988,3c1.065979,1.065994 1.932983,2.766998 2.599976,5.100006c0.367004,1.199997 0.617004,2.283997 0.75,3.25l0.400024,4.25c0.299988,3.400009 0.450012,6.517014 0.450012,9.350006l0,0zm-50.850037,15l22.700012,-11.799988l-22.700012,-11.850006l0,23.649994z"/>
   </g>
   <g id="svg_9">
    <polygon id="svg_10" points="33.29998779296875,101.82499694824219 33.29998779296875,78.17500305175781 56,90.02500915527344 " fill="#FFFFFF" clip-rule="evenodd" fill-rule="evenodd"/>
   </g>
  </g>
  <g id="svg_12">
   <g id="svg_1">
    <path opacity="0.9" fill="#1F1F1F" fill-rule="evenodd" clip-rule="evenodd" id="svg_2" d="m84.150002,26.4l0,6.35c0,2.833 -0.150002,5.966999 -0.450005,9.400002c-0.132996,1.699997 -0.266998,3.116997 -0.399986,4.25l-0.150002,0.949997c-0.167,0.767002 -0.366997,1.517002 -0.599998,2.25c-0.667,2.367001 -1.532997,4.083 -2.600014,5.150002c-1.366997,1.400002 -2.966995,2.382999 -4.799995,2.950001c-0.633003,0.200001 -1.316002,0.333 -2.050003,0.399998c-0.766998,0.100002 -1.299995,0.167 -1.599998,0.200001c-4.900002,0.367001 -11.283001,0.617001 -19.150002,0.75c-2.433998,0.034 -4.882999,0.067001 -7.349998,0.100002l-2.950001,0c-3.632999,-0.033001 -7.549999,-0.083 -11.75,-0.150002c-8.432999,-0.167 -14.049994,-0.382999 -16.849998,-0.650002c-0.066998,-0.032997 -0.667003,-0.116997 -1.799994,-0.25c-0.900003,-0.132999 -1.683002,-0.282997 -2.349999,-0.449997c-2.066,-0.533001 -3.783,-1.5 -5.150001,-2.900002c-1.032999,-1.067001 -1.900002,-2.783001 -2.599999,-5.150002c-0.233,-0.732998 -0.417,-1.482998 -0.55,-2.25l-0.2,-0.949997c-0.133,-1.133003 -0.267,-2.550003 -0.4,-4.25c-0.267,-3.433002 -0.4,-6.567001 -0.4,-9.400005l0,-6.349998c0,-2.833002 0.133,-5.949999 0.4,-9.350006l0.4,-4.25001c0.167,-0.966003 0.417,-2.049994 0.75,-3.25c0.7,-2.332999 1.567,-4.033 2.599999,-5.099998c1.367,-1.434 2.967,-2.434 4.800003,-3c0.632998,-0.166999 1.332994,-0.3 2.099998,-0.4c0.400002,-0.066 0.917,-0.133 1.55,-0.2c4.900002,-0.333 11.282992,-0.567003 19.149999,-0.7c3.899998,-0.1 7.332993,-0.150002 10.299995,-0.150002l2.950008,0.050002c2.466999,0 4.932999,0.034 7.400002,0.1c7.833,0.133 14.199986,0.367001 19.099987,0.7c0.300003,0.033 0.833,0.1 1.599998,0.2c0.733002,0.1 1.417,0.233001 2.050003,0.4c1.833,0.566 3.433998,1.566 4.799995,3c1.066002,1.066 1.933014,2.766999 2.600014,5.099998c0.366997,1.200006 0.616997,2.283998 0.75,3.25l0.399986,4.25001c0.300003,3.400002 0.450005,6.517004 0.450005,9.350006l0,0.000002zm-50.850002,15.000002l22.700001,-11.800001l-22.700001,-11.85l0,23.650002z"/>
   </g>
   <g id="svg_3">
    <polygon id="svg_4" points="33.3,41.4 33.3,17.75 56,29.6" fill="#FFFFFF" clip-rule="evenodd" fill-rule="evenodd"/>
   </g>
  </g>
 </g>
</svg>